<svg xmlns="http://www.w3.org/2000/svg" width="52.6" height="37" viewBox="271.5 402.4 52.6 37"><path d="M317.8 403.2a8 8 0 0 1 4.2 2.4c1 1 1.5 2.4 1.8 4 .2 1.5.3 3.8.3 6.8v9.1c0 2.9-.2 5.2-.7 7a8.6 8.6 0 0 1-2.3 4.1c-1 1-2.4 1.7-4.2 2.2-1.7.4-4 .6-7 .6h-24.2c-4 0-7-.5-9-1.5a8 8 0 0 1-4.2-4.7c-.6-2-1-4.5-1-7.7v-9.1c0-4.5.3-7.4.8-8.7.9-2.2 2.7-3.7 5.4-4.4 2-.6 4.6-.9 8-.9H310c3.3 0 6 .3 7.8.8zm-12.5 19c.6-.3 1-.8 1-1.5s-.4-1.2-1-1.5l-11-5.7c-.6-.3-1.2-.3-1.7 0-.5.4-.8.9-.8 1.5v11.5c0 .6.3 1.1.8 1.4l.8.3c.3 0 .6 0 .9-.2l11-5.8z"/></svg>