<svg xmlns="http://www.w3.org/2000/svg" width="28.3" height="37" viewBox="283.5 408.4 28.3 37"><path d="M297.6 408.4c6 0 10.6 4.5 10.6 10.5-.4 4.2-2.2 8.5-5.3 12.7-3 4.2-4.8 6.4-5.3 6.7a53 53 0 0 1-5.3-6.7c-3-4.2-4.8-8.5-5.3-12.7.1-6 4.7-10.5 10.6-10.5zm0 7c-2 0-3.5 1.5-3.5 3.5s1.6 3.5 3.5 3.5c2 0 3.5-1.5 3.5-3.5s-1.5-3.5-3.5-3.5zm14.2 22.9c-.2 4-6.1 7-14.2 7-8 0-13.9-3-14.1-7 0-2.2 2.2-4.2 5.5-5.6l1.1 1.6c-2 .9-3 2-3 3.2 0 2.4 4.6 4.3 10.5 4.3 6 0 10.6-2 10.6-4.3 0-1.3-1-2.3-3-3.2l1-1.6c3.4 1.4 5.5 3.4 5.6 5.6z"/></svg>